%TF.GenerationSoftware,KiCad,Pcbnew,(5.1.9-0-10_14)*%
%TF.CreationDate,2021-09-10T16:08:35-07:00*%
%TF.ProjectId,CLOCK-MODULE,434c4f43-4b2d-44d4-9f44-554c452e6b69,rev?*%
%TF.SameCoordinates,Original*%
%TF.FileFunction,Legend,Bot*%
%TF.FilePolarity,Positive*%
%FSLAX46Y46*%
G04 Gerber Fmt 4.6, Leading zero omitted, Abs format (unit mm)*
G04 Created by KiCad (PCBNEW (5.1.9-0-10_14)) date 2021-09-10 16:08:35*
%MOMM*%
%LPD*%
G01*
G04 APERTURE LIST*
%ADD10C,0.150000*%
%ADD11C,0.120000*%
G04 APERTURE END LIST*
D10*
X-5991666Y9071428D02*
X-6039285Y9119047D01*
X-6182142Y9214285D01*
X-6277380Y9261904D01*
X-6420238Y9309523D01*
X-6658333Y9357142D01*
X-6848809Y9357142D01*
X-7086904Y9309523D01*
X-7229761Y9261904D01*
X-7324999Y9214285D01*
X-7467857Y9119047D01*
X-7515476Y9071428D01*
X-6467857Y8119047D02*
X-6420238Y8166666D01*
X-6372619Y8309523D01*
X-6372619Y8404761D01*
X-6420238Y8547619D01*
X-6515476Y8642857D01*
X-6610714Y8690476D01*
X-6801190Y8738095D01*
X-6944047Y8738095D01*
X-7134523Y8690476D01*
X-7229761Y8642857D01*
X-7324999Y8547619D01*
X-7372619Y8404761D01*
X-7372619Y8309523D01*
X-7324999Y8166666D01*
X-7277380Y8119047D01*
X-5991666Y7785714D02*
X-6039285Y7738095D01*
X-6182142Y7642857D01*
X-6277380Y7595238D01*
X-6420238Y7547619D01*
X-6658333Y7500000D01*
X-6848809Y7500000D01*
X-7086904Y7547619D01*
X-7229761Y7595238D01*
X-7325000Y7642857D01*
X-7467857Y7738095D01*
X-7515476Y7785714D01*
X-7277380Y7071428D02*
X-7325000Y7023809D01*
X-7372619Y6928571D01*
X-7372619Y6690476D01*
X-7325000Y6595238D01*
X-7277380Y6547619D01*
X-7182142Y6500000D01*
X-7086904Y6500000D01*
X-6944047Y6547619D01*
X-6372619Y7119047D01*
X-6372619Y6500000D01*
X-7372619Y5880952D02*
X-7372619Y5785714D01*
X-7325000Y5690476D01*
X-7277380Y5642857D01*
X-7182142Y5595238D01*
X-6991666Y5547619D01*
X-6753571Y5547619D01*
X-6563095Y5595238D01*
X-6467857Y5642857D01*
X-6420238Y5690476D01*
X-6372619Y5785714D01*
X-6372619Y5880952D01*
X-6420238Y5976190D01*
X-6467857Y6023809D01*
X-6563095Y6071428D01*
X-6753571Y6119047D01*
X-6991666Y6119047D01*
X-7182142Y6071428D01*
X-7277380Y6023809D01*
X-7325000Y5976190D01*
X-7372619Y5880952D01*
X-7277380Y5166666D02*
X-7325000Y5119047D01*
X-7372619Y5023809D01*
X-7372619Y4785714D01*
X-7325000Y4690476D01*
X-7277380Y4642857D01*
X-7182142Y4595238D01*
X-7086904Y4595238D01*
X-6944047Y4642857D01*
X-6372619Y5214285D01*
X-6372619Y4595238D01*
X-6372619Y3642857D02*
X-6372619Y4214285D01*
X-6372619Y3928571D02*
X-7372619Y3928571D01*
X-7229761Y4023809D01*
X-7134523Y4119047D01*
X-7086904Y4214285D01*
X-7372619Y2547619D02*
X-6372619Y2309523D01*
X-7086904Y2119047D01*
X-6372619Y1928571D01*
X-7372619Y1690476D01*
X-6372619Y1309523D02*
X-7039285Y1309523D01*
X-7372619Y1309523D02*
X-7325000Y1357142D01*
X-7277380Y1309523D01*
X-7325000Y1261904D01*
X-7372619Y1309523D01*
X-7277380Y1309523D01*
X-7039285Y833333D02*
X-6372619Y833333D01*
X-6944047Y833333D02*
X-6991666Y785714D01*
X-7039285Y690476D01*
X-7039285Y547619D01*
X-6991666Y452380D01*
X-6896428Y404761D01*
X-6372619Y404761D01*
X-7039285Y-499999D02*
X-6229761Y-499999D01*
X-6134523Y-452380D01*
X-6086904Y-404761D01*
X-6039285Y-309523D01*
X-6039285Y-166666D01*
X-6086904Y-71428D01*
X-6420238Y-499999D02*
X-6372619Y-404761D01*
X-6372619Y-214285D01*
X-6420238Y-119047D01*
X-6467857Y-71428D01*
X-6563095Y-23809D01*
X-6848809Y-23809D01*
X-6944047Y-71428D01*
X-6991666Y-119047D01*
X-7039285Y-214285D01*
X-7039285Y-404761D01*
X-6991666Y-499999D01*
X-7372619Y-1595238D02*
X-7372619Y-2166666D01*
X-6372619Y-1880952D02*
X-7372619Y-1880952D01*
X-6372619Y-2928571D02*
X-6896428Y-2928571D01*
X-6991666Y-2880952D01*
X-7039285Y-2785714D01*
X-7039285Y-2595238D01*
X-6991666Y-2499999D01*
X-6420238Y-2928571D02*
X-6372619Y-2833333D01*
X-6372619Y-2595238D01*
X-6420238Y-2499999D01*
X-6515476Y-2452380D01*
X-6610714Y-2452380D01*
X-6705952Y-2499999D01*
X-6753571Y-2595238D01*
X-6753571Y-2833333D01*
X-6801190Y-2928571D01*
X-7039285Y-3404761D02*
X-6372619Y-3404761D01*
X-6944047Y-3404761D02*
X-6991666Y-3452380D01*
X-7039285Y-3547619D01*
X-7039285Y-3690476D01*
X-6991666Y-3785714D01*
X-6896428Y-3833333D01*
X-6372619Y-3833333D01*
X-7039285Y-4738095D02*
X-6229761Y-4738095D01*
X-6134523Y-4690476D01*
X-6086904Y-4642857D01*
X-6039285Y-4547619D01*
X-6039285Y-4404761D01*
X-6086904Y-4309523D01*
X-6420238Y-4738095D02*
X-6372619Y-4642857D01*
X-6372619Y-4452380D01*
X-6420238Y-4357142D01*
X-6467857Y-4309523D01*
X-6563095Y-4261904D01*
X-6848809Y-4261904D01*
X-6944047Y-4309523D01*
X-6991666Y-4357142D01*
X-7039285Y-4452380D01*
X-7039285Y-4642857D01*
X-6991666Y-4738095D01*
X-7372619Y-5880952D02*
X-6372619Y-6119047D01*
X-7086904Y-6309523D01*
X-6372619Y-6499999D01*
X-7372619Y-6738095D01*
X-6372619Y-7261904D02*
X-6420238Y-7166666D01*
X-6467857Y-7119047D01*
X-6563095Y-7071428D01*
X-6848809Y-7071428D01*
X-6944047Y-7119047D01*
X-6991666Y-7166666D01*
X-7039285Y-7261904D01*
X-7039285Y-7404761D01*
X-6991666Y-7499999D01*
X-6944047Y-7547619D01*
X-6848809Y-7595238D01*
X-6563095Y-7595238D01*
X-6467857Y-7547619D01*
X-6420238Y-7499999D01*
X-6372619Y-7404761D01*
X-6372619Y-7261904D01*
X-7039285Y-8023809D02*
X-6372619Y-8023809D01*
X-6944047Y-8023809D02*
X-6991666Y-8071428D01*
X-7039285Y-8166666D01*
X-7039285Y-8309523D01*
X-6991666Y-8404761D01*
X-6896428Y-8452380D01*
X-6372619Y-8452380D01*
X-7039285Y-9357142D02*
X-6229761Y-9357142D01*
X-6134523Y-9309523D01*
X-6086904Y-9261904D01*
X-6039285Y-9166666D01*
X-6039285Y-9023809D01*
X-6086904Y-8928571D01*
X-6420238Y-9357142D02*
X-6372619Y-9261904D01*
X-6372619Y-9071428D01*
X-6420238Y-8976190D01*
X-6467857Y-8928571D01*
X-6563095Y-8880952D01*
X-6848809Y-8880952D01*
X-6944047Y-8928571D01*
X-6991666Y-8976190D01*
X-7039285Y-9071428D01*
X-7039285Y-9261904D01*
X-6991666Y-9357142D01*
X927380Y4519047D02*
X1641666Y4519047D01*
X1784523Y4566666D01*
X1879761Y4661904D01*
X1927380Y4804761D01*
X1927380Y4899999D01*
X1927380Y3566666D02*
X1927380Y4042857D01*
X927380Y4042857D01*
X1832142Y2661904D02*
X1879761Y2709523D01*
X1927380Y2852380D01*
X1927380Y2947619D01*
X1879761Y3090476D01*
X1784523Y3185714D01*
X1689285Y3233333D01*
X1498809Y3280952D01*
X1355952Y3280952D01*
X1165476Y3233333D01*
X1070238Y3185714D01*
X975000Y3090476D01*
X927380Y2947619D01*
X927380Y2852380D01*
X975000Y2709523D01*
X1022619Y2661904D01*
X927380Y1947619D02*
X1641666Y1947619D01*
X1784523Y1995238D01*
X1879761Y2090476D01*
X1927380Y2233333D01*
X1927380Y2328571D01*
X1927380Y995238D02*
X1927380Y1471428D01*
X927380Y1471428D01*
X1832142Y90476D02*
X1879761Y138095D01*
X1927380Y280952D01*
X1927380Y376190D01*
X1879761Y519047D01*
X1784523Y614285D01*
X1689285Y661904D01*
X1498809Y709523D01*
X1355952Y709523D01*
X1165476Y661904D01*
X1070238Y614285D01*
X975000Y519047D01*
X927380Y376190D01*
X927380Y280952D01*
X975000Y138095D01*
X1022619Y90476D01*
X927380Y-623809D02*
X1641666Y-623809D01*
X1784523Y-576190D01*
X1879761Y-480952D01*
X1927380Y-338095D01*
X1927380Y-242857D01*
X1927380Y-1576190D02*
X1927380Y-1100000D01*
X927380Y-1100000D01*
X1832142Y-2480952D02*
X1879761Y-2433333D01*
X1927380Y-2290476D01*
X1927380Y-2195238D01*
X1879761Y-2052380D01*
X1784523Y-1957142D01*
X1689285Y-1909523D01*
X1498809Y-1861904D01*
X1355952Y-1861904D01*
X1165476Y-1909523D01*
X1070238Y-1957142D01*
X974999Y-2052380D01*
X927380Y-2195238D01*
X927380Y-2290476D01*
X974999Y-2433333D01*
X1022619Y-2480952D01*
X927380Y-3195238D02*
X1641666Y-3195238D01*
X1784523Y-3147619D01*
X1879761Y-3052380D01*
X1927380Y-2909523D01*
X1927380Y-2814285D01*
X1927380Y-4147619D02*
X1927380Y-3671428D01*
X927380Y-3671428D01*
X1832142Y-5052380D02*
X1879761Y-5004761D01*
X1927380Y-4861904D01*
X1927380Y-4766666D01*
X1879761Y-4623809D01*
X1784523Y-4528571D01*
X1689285Y-4480952D01*
X1498809Y-4433333D01*
X1355952Y-4433333D01*
X1165476Y-4480952D01*
X1070238Y-4528571D01*
X974999Y-4623809D01*
X927380Y-4766666D01*
X927380Y-4861904D01*
X974999Y-5004761D01*
X1022619Y-5052380D01*
X-9122619Y8488214D02*
X-9122619Y8964404D01*
X-8646428Y9012023D01*
X-8694047Y8964404D01*
X-8741666Y8869166D01*
X-8741666Y8631071D01*
X-8694047Y8535833D01*
X-8646428Y8488214D01*
X-8551190Y8440595D01*
X-8313095Y8440595D01*
X-8217857Y8488214D01*
X-8170238Y8535833D01*
X-8122619Y8631071D01*
X-8122619Y8869166D01*
X-8170238Y8964404D01*
X-8217857Y9012023D01*
X-9122619Y8154880D02*
X-8122619Y7821547D01*
X-9122619Y7488214D01*
X-9122619Y6202500D02*
X-9122619Y6012023D01*
X-9075000Y5916785D01*
X-8979761Y5821547D01*
X-8789285Y5773928D01*
X-8455952Y5773928D01*
X-8265476Y5821547D01*
X-8170238Y5916785D01*
X-8122619Y6012023D01*
X-8122619Y6202500D01*
X-8170238Y6297738D01*
X-8265476Y6392976D01*
X-8455952Y6440595D01*
X-8789285Y6440595D01*
X-8979761Y6392976D01*
X-9075000Y6297738D01*
X-9122619Y6202500D01*
X-8170238Y5392976D02*
X-8122619Y5250119D01*
X-8122619Y5012023D01*
X-8170238Y4916785D01*
X-8217857Y4869166D01*
X-8313095Y4821547D01*
X-8408333Y4821547D01*
X-8503571Y4869166D01*
X-8551190Y4916785D01*
X-8598809Y5012023D01*
X-8646428Y5202500D01*
X-8694047Y5297738D01*
X-8741666Y5345357D01*
X-8836904Y5392976D01*
X-8932142Y5392976D01*
X-9027380Y5345357D01*
X-9075000Y5297738D01*
X-9122619Y5202500D01*
X-9122619Y4964404D01*
X-9075000Y4821547D01*
X-8217857Y3821547D02*
X-8170238Y3869166D01*
X-8122619Y4012023D01*
X-8122619Y4107261D01*
X-8170238Y4250119D01*
X-8265476Y4345357D01*
X-8360714Y4392976D01*
X-8551190Y4440595D01*
X-8694047Y4440595D01*
X-8884523Y4392976D01*
X-8979761Y4345357D01*
X-9075000Y4250119D01*
X-9122619Y4107261D01*
X-9122619Y4012023D01*
X-9075000Y3869166D01*
X-9027380Y3821547D01*
X-8122619Y2631071D02*
X-9122619Y2631071D01*
X-8408333Y2297738D01*
X-9122619Y1964404D01*
X-8122619Y1964404D01*
X-9122619Y1297738D02*
X-9122619Y1107261D01*
X-9075000Y1012023D01*
X-8979761Y916785D01*
X-8789285Y869166D01*
X-8455952Y869166D01*
X-8265476Y916785D01*
X-8170238Y1012023D01*
X-8122619Y1107261D01*
X-8122619Y1297738D01*
X-8170238Y1392976D01*
X-8265476Y1488214D01*
X-8455952Y1535833D01*
X-8789285Y1535833D01*
X-8979761Y1488214D01*
X-9075000Y1392976D01*
X-9122619Y1297738D01*
X-8122619Y440595D02*
X-9122619Y440595D01*
X-9122619Y202500D01*
X-9075000Y59642D01*
X-8979761Y-35595D01*
X-8884523Y-83214D01*
X-8694047Y-130833D01*
X-8551190Y-130833D01*
X-8360714Y-83214D01*
X-8265476Y-35595D01*
X-8170238Y59642D01*
X-8122619Y202500D01*
X-8122619Y440595D01*
X-9122619Y-559404D02*
X-8313095Y-559404D01*
X-8217857Y-607023D01*
X-8170238Y-654642D01*
X-8122619Y-749880D01*
X-8122619Y-940357D01*
X-8170238Y-1035595D01*
X-8217857Y-1083214D01*
X-8313095Y-1130833D01*
X-9122619Y-1130833D01*
X-8122619Y-2083214D02*
X-8122619Y-1607023D01*
X-9122619Y-1607023D01*
X-8646428Y-2416547D02*
X-8646428Y-2749880D01*
X-8122619Y-2892738D02*
X-8122619Y-2416547D01*
X-9122619Y-2416547D01*
X-9122619Y-2892738D01*
D11*
%TO.C,X1*%
X7110000Y6770000D02*
G75*
G02*
X7860000Y6020000I0J-750000D01*
G01*
X7860000Y-5380000D02*
G75*
G02*
X7110000Y-6130000I-750000J0D01*
G01*
X-4290000Y-6130000D02*
G75*
G02*
X-5040000Y-5380000I0J750000D01*
G01*
X-5040000Y6770000D02*
X7110000Y6770000D01*
X7860000Y6020000D02*
X7860000Y-5380000D01*
X7110000Y-6130000D02*
X-4290000Y-6130000D01*
X-5040000Y-5380000D02*
X-5040000Y6770000D01*
D10*
X9484523Y-5177380D02*
X8817857Y-6177380D01*
X8817857Y-5177380D02*
X9484523Y-6177380D01*
X7913095Y-6177380D02*
X8484523Y-6177380D01*
X8198809Y-6177380D02*
X8198809Y-5177380D01*
X8294047Y-5320238D01*
X8389285Y-5415476D01*
X8484523Y-5463095D01*
%TD*%
M02*
