%TF.GenerationSoftware,KiCad,Pcbnew,(5.1.9-0-10_14)*%
%TF.CreationDate,2021-09-10T16:08:35-07:00*%
%TF.ProjectId,CLOCK-MODULE,434c4f43-4b2d-44d4-9f44-554c452e6b69,rev?*%
%TF.SameCoordinates,Original*%
%TF.FileFunction,Copper,L2,Bot*%
%TF.FilePolarity,Positive*%
%FSLAX46Y46*%
G04 Gerber Fmt 4.6, Leading zero omitted, Abs format (unit mm)*
G04 Created by KiCad (PCBNEW (5.1.9-0-10_14)) date 2021-09-10 16:08:35*
%MOMM*%
%LPD*%
G01*
G04 APERTURE LIST*
%TA.AperFunction,ComponentPad*%
%ADD10O,1.700000X1.700000*%
%TD*%
%TA.AperFunction,ComponentPad*%
%ADD11R,1.700000X1.700000*%
%TD*%
%TA.AperFunction,ComponentPad*%
%ADD12R,1.600000X1.600000*%
%TD*%
%TA.AperFunction,ComponentPad*%
%ADD13C,1.600000*%
%TD*%
%TA.AperFunction,ViaPad*%
%ADD14C,0.800000*%
%TD*%
%TA.AperFunction,Conductor*%
%ADD15C,0.500000*%
%TD*%
%TA.AperFunction,Conductor*%
%ADD16C,0.254000*%
%TD*%
%TA.AperFunction,Conductor*%
%ADD17C,0.100000*%
%TD*%
G04 APERTURE END LIST*
D10*
%TO.P,J1,4*%
%TO.N,/5V*%
X8776000Y-3744000D03*
%TO.P,J1,3*%
%TO.N,/3V3*%
X8776000Y-1204000D03*
%TO.P,J1,2*%
%TO.N,/CLK_OUT*%
X8776000Y1336000D03*
D11*
%TO.P,J1,1*%
%TO.N,/GND*%
X8776000Y3876000D03*
%TD*%
D12*
%TO.P,X1,1*%
%TO.N,/OSC-EN*%
X-2400000Y4130000D03*
D13*
%TO.P,X1,8*%
%TO.N,/5V*%
X-2400000Y-3490000D03*
%TO.P,X1,5*%
%TO.N,/CLK-TO-LS*%
X5220000Y-3490000D03*
%TO.P,X1,4*%
%TO.N,/GND*%
X5220000Y4130000D03*
%TD*%
D14*
%TO.N,/GND*%
X3696000Y-5014000D03*
X902000Y5654000D03*
X-4178000Y320000D03*
%TD*%
D15*
%TO.N,/GND*%
X5220000Y5146000D02*
X5220000Y4130000D01*
X-4178000Y5654000D02*
X902000Y5654000D01*
X4712000Y5654000D02*
X5220000Y5146000D01*
X902000Y5654000D02*
X4712000Y5654000D01*
X-4178000Y320000D02*
X-4178000Y5654000D01*
X3442000Y-5268000D02*
X3696000Y-5014000D01*
X-4178000Y-5268000D02*
X3442000Y-5268000D01*
X-4178000Y320000D02*
X-4178000Y-5268000D01*
%TD*%
D16*
%TO.N,/GND*%
X9340001Y5362515D02*
X9061750Y5361000D01*
X8903000Y5202250D01*
X8903000Y4003000D01*
X8923000Y4003000D01*
X8923000Y3749000D01*
X8903000Y3749000D01*
X8903000Y3729000D01*
X8649000Y3729000D01*
X8649000Y3749000D01*
X7449750Y3749000D01*
X7291000Y3590250D01*
X7287928Y3026000D01*
X7300188Y2901518D01*
X7336498Y2781820D01*
X7395463Y2671506D01*
X7474815Y2574815D01*
X7571506Y2495463D01*
X7681820Y2436498D01*
X7754380Y2414487D01*
X7622525Y2282632D01*
X7460010Y2039411D01*
X7348068Y1769158D01*
X7291000Y1482260D01*
X7291000Y1189740D01*
X7348068Y902842D01*
X7460010Y632589D01*
X7622525Y389368D01*
X7829368Y182525D01*
X8003760Y66000D01*
X7829368Y-50525D01*
X7622525Y-257368D01*
X7460010Y-500589D01*
X7348068Y-770842D01*
X7291000Y-1057740D01*
X7291000Y-1350260D01*
X7348068Y-1637158D01*
X7460010Y-1907411D01*
X7622525Y-2150632D01*
X7829368Y-2357475D01*
X8003760Y-2474000D01*
X7829368Y-2590525D01*
X7622525Y-2797368D01*
X7460010Y-3040589D01*
X7348068Y-3310842D01*
X7291000Y-3597740D01*
X7291000Y-3890260D01*
X7348068Y-4177158D01*
X7460010Y-4447411D01*
X7622525Y-4690632D01*
X7829368Y-4897475D01*
X8072589Y-5059990D01*
X8342842Y-5171932D01*
X8629740Y-5229000D01*
X8922260Y-5229000D01*
X9209158Y-5171932D01*
X9340000Y-5117736D01*
X9340000Y-9340000D01*
X-9340000Y-9340000D01*
X-9340000Y-3348665D01*
X-3835000Y-3348665D01*
X-3835000Y-3631335D01*
X-3779853Y-3908574D01*
X-3671680Y-4169727D01*
X-3514637Y-4404759D01*
X-3314759Y-4604637D01*
X-3079727Y-4761680D01*
X-2818574Y-4869853D01*
X-2541335Y-4925000D01*
X-2258665Y-4925000D01*
X-1981426Y-4869853D01*
X-1720273Y-4761680D01*
X-1485241Y-4604637D01*
X-1285363Y-4404759D01*
X-1128320Y-4169727D01*
X-1020147Y-3908574D01*
X-965000Y-3631335D01*
X-965000Y-3348665D01*
X3785000Y-3348665D01*
X3785000Y-3631335D01*
X3840147Y-3908574D01*
X3948320Y-4169727D01*
X4105363Y-4404759D01*
X4305241Y-4604637D01*
X4540273Y-4761680D01*
X4801426Y-4869853D01*
X5078665Y-4925000D01*
X5361335Y-4925000D01*
X5638574Y-4869853D01*
X5899727Y-4761680D01*
X6134759Y-4604637D01*
X6334637Y-4404759D01*
X6491680Y-4169727D01*
X6599853Y-3908574D01*
X6655000Y-3631335D01*
X6655000Y-3348665D01*
X6599853Y-3071426D01*
X6491680Y-2810273D01*
X6334637Y-2575241D01*
X6134759Y-2375363D01*
X5899727Y-2218320D01*
X5638574Y-2110147D01*
X5361335Y-2055000D01*
X5078665Y-2055000D01*
X4801426Y-2110147D01*
X4540273Y-2218320D01*
X4305241Y-2375363D01*
X4105363Y-2575241D01*
X3948320Y-2810273D01*
X3840147Y-3071426D01*
X3785000Y-3348665D01*
X-965000Y-3348665D01*
X-1020147Y-3071426D01*
X-1128320Y-2810273D01*
X-1285363Y-2575241D01*
X-1485241Y-2375363D01*
X-1720273Y-2218320D01*
X-1981426Y-2110147D01*
X-2258665Y-2055000D01*
X-2541335Y-2055000D01*
X-2818574Y-2110147D01*
X-3079727Y-2218320D01*
X-3314759Y-2375363D01*
X-3514637Y-2575241D01*
X-3671680Y-2810273D01*
X-3779853Y-3071426D01*
X-3835000Y-3348665D01*
X-9340000Y-3348665D01*
X-9340000Y4930000D01*
X-3838072Y4930000D01*
X-3838072Y3330000D01*
X-3825812Y3205518D01*
X-3789502Y3085820D01*
X-3730537Y2975506D01*
X-3651185Y2878815D01*
X-3554494Y2799463D01*
X-3444180Y2740498D01*
X-3324482Y2704188D01*
X-3200000Y2691928D01*
X-1600000Y2691928D01*
X-1475518Y2704188D01*
X-1355820Y2740498D01*
X-1245506Y2799463D01*
X-1148815Y2878815D01*
X-1069463Y2975506D01*
X-1010498Y3085820D01*
X-994883Y3137298D01*
X4406903Y3137298D01*
X4478486Y2893329D01*
X4733996Y2772429D01*
X5008184Y2703700D01*
X5290512Y2689783D01*
X5570130Y2731213D01*
X5836292Y2826397D01*
X5961514Y2893329D01*
X6033097Y3137298D01*
X5220000Y3950395D01*
X4406903Y3137298D01*
X-994883Y3137298D01*
X-974188Y3205518D01*
X-961928Y3330000D01*
X-961928Y4059488D01*
X3779783Y4059488D01*
X3821213Y3779870D01*
X3916397Y3513708D01*
X3983329Y3388486D01*
X4227298Y3316903D01*
X5040395Y4130000D01*
X5399605Y4130000D01*
X6212702Y3316903D01*
X6456671Y3388486D01*
X6577571Y3643996D01*
X6646300Y3918184D01*
X6660217Y4200512D01*
X6618787Y4480130D01*
X6530860Y4726000D01*
X7287928Y4726000D01*
X7291000Y4161750D01*
X7449750Y4003000D01*
X8649000Y4003000D01*
X8649000Y5202250D01*
X8490250Y5361000D01*
X7926000Y5364072D01*
X7801518Y5351812D01*
X7681820Y5315502D01*
X7571506Y5256537D01*
X7474815Y5177185D01*
X7395463Y5080494D01*
X7336498Y4970180D01*
X7300188Y4850482D01*
X7287928Y4726000D01*
X6530860Y4726000D01*
X6523603Y4746292D01*
X6456671Y4871514D01*
X6212702Y4943097D01*
X5399605Y4130000D01*
X5040395Y4130000D01*
X4227298Y4943097D01*
X3983329Y4871514D01*
X3862429Y4616004D01*
X3793700Y4341816D01*
X3779783Y4059488D01*
X-961928Y4059488D01*
X-961928Y4930000D01*
X-974188Y5054482D01*
X-994882Y5122702D01*
X4406903Y5122702D01*
X5220000Y4309605D01*
X6033097Y5122702D01*
X5961514Y5366671D01*
X5706004Y5487571D01*
X5431816Y5556300D01*
X5149488Y5570217D01*
X4869870Y5528787D01*
X4603708Y5433603D01*
X4478486Y5366671D01*
X4406903Y5122702D01*
X-994882Y5122702D01*
X-1010498Y5174180D01*
X-1069463Y5284494D01*
X-1148815Y5381185D01*
X-1245506Y5460537D01*
X-1355820Y5519502D01*
X-1475518Y5555812D01*
X-1600000Y5568072D01*
X-3200000Y5568072D01*
X-3324482Y5555812D01*
X-3444180Y5519502D01*
X-3554494Y5460537D01*
X-3651185Y5381185D01*
X-3730537Y5284494D01*
X-3789502Y5174180D01*
X-3825812Y5054482D01*
X-3838072Y4930000D01*
X-9340000Y4930000D01*
X-9340000Y9340000D01*
X9340001Y9340000D01*
X9340001Y5362515D01*
%TA.AperFunction,Conductor*%
D17*
G36*
X9340001Y5362515D02*
G01*
X9061750Y5361000D01*
X8903000Y5202250D01*
X8903000Y4003000D01*
X8923000Y4003000D01*
X8923000Y3749000D01*
X8903000Y3749000D01*
X8903000Y3729000D01*
X8649000Y3729000D01*
X8649000Y3749000D01*
X7449750Y3749000D01*
X7291000Y3590250D01*
X7287928Y3026000D01*
X7300188Y2901518D01*
X7336498Y2781820D01*
X7395463Y2671506D01*
X7474815Y2574815D01*
X7571506Y2495463D01*
X7681820Y2436498D01*
X7754380Y2414487D01*
X7622525Y2282632D01*
X7460010Y2039411D01*
X7348068Y1769158D01*
X7291000Y1482260D01*
X7291000Y1189740D01*
X7348068Y902842D01*
X7460010Y632589D01*
X7622525Y389368D01*
X7829368Y182525D01*
X8003760Y66000D01*
X7829368Y-50525D01*
X7622525Y-257368D01*
X7460010Y-500589D01*
X7348068Y-770842D01*
X7291000Y-1057740D01*
X7291000Y-1350260D01*
X7348068Y-1637158D01*
X7460010Y-1907411D01*
X7622525Y-2150632D01*
X7829368Y-2357475D01*
X8003760Y-2474000D01*
X7829368Y-2590525D01*
X7622525Y-2797368D01*
X7460010Y-3040589D01*
X7348068Y-3310842D01*
X7291000Y-3597740D01*
X7291000Y-3890260D01*
X7348068Y-4177158D01*
X7460010Y-4447411D01*
X7622525Y-4690632D01*
X7829368Y-4897475D01*
X8072589Y-5059990D01*
X8342842Y-5171932D01*
X8629740Y-5229000D01*
X8922260Y-5229000D01*
X9209158Y-5171932D01*
X9340000Y-5117736D01*
X9340000Y-9340000D01*
X-9340000Y-9340000D01*
X-9340000Y-3348665D01*
X-3835000Y-3348665D01*
X-3835000Y-3631335D01*
X-3779853Y-3908574D01*
X-3671680Y-4169727D01*
X-3514637Y-4404759D01*
X-3314759Y-4604637D01*
X-3079727Y-4761680D01*
X-2818574Y-4869853D01*
X-2541335Y-4925000D01*
X-2258665Y-4925000D01*
X-1981426Y-4869853D01*
X-1720273Y-4761680D01*
X-1485241Y-4604637D01*
X-1285363Y-4404759D01*
X-1128320Y-4169727D01*
X-1020147Y-3908574D01*
X-965000Y-3631335D01*
X-965000Y-3348665D01*
X3785000Y-3348665D01*
X3785000Y-3631335D01*
X3840147Y-3908574D01*
X3948320Y-4169727D01*
X4105363Y-4404759D01*
X4305241Y-4604637D01*
X4540273Y-4761680D01*
X4801426Y-4869853D01*
X5078665Y-4925000D01*
X5361335Y-4925000D01*
X5638574Y-4869853D01*
X5899727Y-4761680D01*
X6134759Y-4604637D01*
X6334637Y-4404759D01*
X6491680Y-4169727D01*
X6599853Y-3908574D01*
X6655000Y-3631335D01*
X6655000Y-3348665D01*
X6599853Y-3071426D01*
X6491680Y-2810273D01*
X6334637Y-2575241D01*
X6134759Y-2375363D01*
X5899727Y-2218320D01*
X5638574Y-2110147D01*
X5361335Y-2055000D01*
X5078665Y-2055000D01*
X4801426Y-2110147D01*
X4540273Y-2218320D01*
X4305241Y-2375363D01*
X4105363Y-2575241D01*
X3948320Y-2810273D01*
X3840147Y-3071426D01*
X3785000Y-3348665D01*
X-965000Y-3348665D01*
X-1020147Y-3071426D01*
X-1128320Y-2810273D01*
X-1285363Y-2575241D01*
X-1485241Y-2375363D01*
X-1720273Y-2218320D01*
X-1981426Y-2110147D01*
X-2258665Y-2055000D01*
X-2541335Y-2055000D01*
X-2818574Y-2110147D01*
X-3079727Y-2218320D01*
X-3314759Y-2375363D01*
X-3514637Y-2575241D01*
X-3671680Y-2810273D01*
X-3779853Y-3071426D01*
X-3835000Y-3348665D01*
X-9340000Y-3348665D01*
X-9340000Y4930000D01*
X-3838072Y4930000D01*
X-3838072Y3330000D01*
X-3825812Y3205518D01*
X-3789502Y3085820D01*
X-3730537Y2975506D01*
X-3651185Y2878815D01*
X-3554494Y2799463D01*
X-3444180Y2740498D01*
X-3324482Y2704188D01*
X-3200000Y2691928D01*
X-1600000Y2691928D01*
X-1475518Y2704188D01*
X-1355820Y2740498D01*
X-1245506Y2799463D01*
X-1148815Y2878815D01*
X-1069463Y2975506D01*
X-1010498Y3085820D01*
X-994883Y3137298D01*
X4406903Y3137298D01*
X4478486Y2893329D01*
X4733996Y2772429D01*
X5008184Y2703700D01*
X5290512Y2689783D01*
X5570130Y2731213D01*
X5836292Y2826397D01*
X5961514Y2893329D01*
X6033097Y3137298D01*
X5220000Y3950395D01*
X4406903Y3137298D01*
X-994883Y3137298D01*
X-974188Y3205518D01*
X-961928Y3330000D01*
X-961928Y4059488D01*
X3779783Y4059488D01*
X3821213Y3779870D01*
X3916397Y3513708D01*
X3983329Y3388486D01*
X4227298Y3316903D01*
X5040395Y4130000D01*
X5399605Y4130000D01*
X6212702Y3316903D01*
X6456671Y3388486D01*
X6577571Y3643996D01*
X6646300Y3918184D01*
X6660217Y4200512D01*
X6618787Y4480130D01*
X6530860Y4726000D01*
X7287928Y4726000D01*
X7291000Y4161750D01*
X7449750Y4003000D01*
X8649000Y4003000D01*
X8649000Y5202250D01*
X8490250Y5361000D01*
X7926000Y5364072D01*
X7801518Y5351812D01*
X7681820Y5315502D01*
X7571506Y5256537D01*
X7474815Y5177185D01*
X7395463Y5080494D01*
X7336498Y4970180D01*
X7300188Y4850482D01*
X7287928Y4726000D01*
X6530860Y4726000D01*
X6523603Y4746292D01*
X6456671Y4871514D01*
X6212702Y4943097D01*
X5399605Y4130000D01*
X5040395Y4130000D01*
X4227298Y4943097D01*
X3983329Y4871514D01*
X3862429Y4616004D01*
X3793700Y4341816D01*
X3779783Y4059488D01*
X-961928Y4059488D01*
X-961928Y4930000D01*
X-974188Y5054482D01*
X-994882Y5122702D01*
X4406903Y5122702D01*
X5220000Y4309605D01*
X6033097Y5122702D01*
X5961514Y5366671D01*
X5706004Y5487571D01*
X5431816Y5556300D01*
X5149488Y5570217D01*
X4869870Y5528787D01*
X4603708Y5433603D01*
X4478486Y5366671D01*
X4406903Y5122702D01*
X-994882Y5122702D01*
X-1010498Y5174180D01*
X-1069463Y5284494D01*
X-1148815Y5381185D01*
X-1245506Y5460537D01*
X-1355820Y5519502D01*
X-1475518Y5555812D01*
X-1600000Y5568072D01*
X-3200000Y5568072D01*
X-3324482Y5555812D01*
X-3444180Y5519502D01*
X-3554494Y5460537D01*
X-3651185Y5381185D01*
X-3730537Y5284494D01*
X-3789502Y5174180D01*
X-3825812Y5054482D01*
X-3838072Y4930000D01*
X-9340000Y4930000D01*
X-9340000Y9340000D01*
X9340001Y9340000D01*
X9340001Y5362515D01*
G37*
%TD.AperFunction*%
%TD*%
M02*
