%TF.GenerationSoftware,KiCad,Pcbnew,(5.1.9-0-10_14)*%
%TF.CreationDate,2021-09-10T16:08:35-07:00*%
%TF.ProjectId,CLOCK-MODULE,434c4f43-4b2d-44d4-9f44-554c452e6b69,rev?*%
%TF.SameCoordinates,Original*%
%TF.FileFunction,Paste,Top*%
%TF.FilePolarity,Positive*%
%FSLAX46Y46*%
G04 Gerber Fmt 4.6, Leading zero omitted, Abs format (unit mm)*
G04 Created by KiCad (PCBNEW (5.1.9-0-10_14)) date 2021-09-10 16:08:35*
%MOMM*%
%LPD*%
G01*
G04 APERTURE LIST*
%ADD10R,0.650000X1.060000*%
G04 APERTURE END LIST*
%TO.C,R2*%
G36*
G01*
X-2637500Y-105000D02*
X-2162500Y-105000D01*
G75*
G02*
X-1925000Y-342500I0J-237500D01*
G01*
X-1925000Y-842500D01*
G75*
G02*
X-2162500Y-1080000I-237500J0D01*
G01*
X-2637500Y-1080000D01*
G75*
G02*
X-2875000Y-842500I0J237500D01*
G01*
X-2875000Y-342500D01*
G75*
G02*
X-2637500Y-105000I237500J0D01*
G01*
G37*
G36*
G01*
X-2637500Y1720000D02*
X-2162500Y1720000D01*
G75*
G02*
X-1925000Y1482500I0J-237500D01*
G01*
X-1925000Y982500D01*
G75*
G02*
X-2162500Y745000I-237500J0D01*
G01*
X-2637500Y745000D01*
G75*
G02*
X-2875000Y982500I0J237500D01*
G01*
X-2875000Y1482500D01*
G75*
G02*
X-2637500Y1720000I237500J0D01*
G01*
G37*
%TD*%
%TO.C,R1*%
G36*
G01*
X1135500Y3351500D02*
X1135500Y2876500D01*
G75*
G02*
X898000Y2639000I-237500J0D01*
G01*
X398000Y2639000D01*
G75*
G02*
X160500Y2876500I0J237500D01*
G01*
X160500Y3351500D01*
G75*
G02*
X398000Y3589000I237500J0D01*
G01*
X898000Y3589000D01*
G75*
G02*
X1135500Y3351500I0J-237500D01*
G01*
G37*
G36*
G01*
X2960500Y3351500D02*
X2960500Y2876500D01*
G75*
G02*
X2723000Y2639000I-237500J0D01*
G01*
X2223000Y2639000D01*
G75*
G02*
X1985500Y2876500I0J237500D01*
G01*
X1985500Y3351500D01*
G75*
G02*
X2223000Y3589000I237500J0D01*
G01*
X2723000Y3589000D01*
G75*
G02*
X2960500Y3351500I0J-237500D01*
G01*
G37*
%TD*%
D10*
%TO.C,U1*%
X460000Y-3574000D03*
X1410000Y-3574000D03*
X2360000Y-3574000D03*
X2360000Y-1374000D03*
X460000Y-1374000D03*
X1410000Y-1374000D03*
%TD*%
M02*
